<?xml version="1.0" standalone="no"?>
<!DOCTYPE svg PUBLIC "-//W3C//DTD SVG 20010904//EN"
 "http://www.w3.org/TR/2001/REC-SVG-20010904/DTD/svg10.dtd">
<svg version="1.0" xmlns="http://www.w3.org/2000/svg"
 width="207.000000pt" height="176.000000pt" viewBox="0 0 207.000000 176.000000"
 preserveAspectRatio="xMidYMid meet">
<metadata>
Created by potrace 1.10, written by Peter Selinger 2001-2011
</metadata>
<g transform="translate(0.000000,176.000000) scale(0.050000,-0.050000)"
fill="#000000" stroke="none">
<path d="M3490 3209 c-33 -16 -170 -77 -304 -136 l-244 -108 -46 50 c-135 144
-405 132 -507 -23 l-33 -51 -85 49 c-252 148 -528 -45 -504 -352 l10 -133
-277 -107 c-492 -189 -516 -309 -102 -517 107 -54 204 -110 216 -124 35 -42
41 -725 7 -766 -81 -98 -480 -331 -566 -331 -46 0 -45 7 24 102 175 242 92
558 -148 558 -217 0 -364 -338 -255 -586 l41 -93 -73 -21 c-41 -11 -126 -26
-189 -33 -115 -13 -172 -109 -94 -157 31 -20 296 28 394 71 65 28 99 32 150
18 232 -67 590 130 1037 572 l239 236 -44 46 c-59 63 -57 65 -200 -85 l-127
-132 -10 297 c-13 388 -17 395 -305 545 -118 62 -215 121 -215 133 0 50 586
249 615 208 52 -75 177 -179 300 -251 150 -88 148 -65 12 -170 -137 -106 -179
-190 -146 -291 25 -74 936 -707 1020 -707 59 0 133 41 157 87 50 95 563 2066
549 2107 -42 119 -165 158 -297 95z m150 -133 c0 -13 -67 -272 -148 -575 -82
-303 -200 -747 -263 -986 -64 -239 -123 -435 -132 -435 -35 0 -897 587 -897
611 0 13 109 117 243 231 377 322 528 540 552 796 l10 118 183 76 c100 41 236
100 302 132 134 63 150 66 150 32z m-852 -178 c116 -137 37 -382 -205 -640
l-134 -143 -147 87 c-275 165 -426 381 -380 546 52 187 274 187 392 0 70 -110
76 -110 116 11 65 196 250 268 358 139z m-1789 -1757 c53 -97 2 -278 -105
-378 l-51 -47 -25 47 c-57 102 -12 372 67 404 52 21 94 12 114 -26z"/>
</g>
</svg>
