<?xml version="1.0" standalone="no"?>
<!DOCTYPE svg PUBLIC "-//W3C//DTD SVG 20010904//EN"
 "http://www.w3.org/TR/2001/REC-SVG-20010904/DTD/svg10.dtd">
<svg version="1.0" xmlns="http://www.w3.org/2000/svg"
 width="125.000000pt" height="107.000000pt" viewBox="0 0 125.000000 107.000000"
 preserveAspectRatio="xMidYMid meet">
<metadata>
Created by potrace 1.10, written by Peter Selinger 2001-2011
</metadata>
<g transform="translate(0.000000,107.000000) scale(0.100000,-0.100000)"
fill="#000000" stroke="none">
<path d="M390 961 c-113 -36 -165 -116 -158 -239 5 -95 51 -184 143 -279 66
-68 73 -72 125 -78 30 -4 108 -5 173 -3 96 2 119 0 127 -12 13 -20 12 -23 -3
-44 -10 -13 -32 -21 -78 -25 l-64 -6 -3 -38 -3 -39 43 6 c139 21 203 47 289
116 34 28 66 50 70 50 17 0 39 -33 39 -58 0 -35 -86 -114 -166 -152 -97 -47
-183 -63 -304 -57 -87 4 -118 10 -183 36 -112 44 -205 115 -244 185 -9 16 -11
16 -41 -1 -18 -10 -32 -21 -32 -24 0 -16 119 -134 165 -164 83 -52 110 -64
198 -87 171 -43 357 -16 513 73 69 39 139 102 154 139 29 71 -15 161 -86 174
-41 8 -64 -3 -126 -60 -52 -48 -68 -54 -68 -24 0 11 -13 34 -29 52 l-29 33
-171 3 -171 3 -60 67 c-83 92 -105 139 -105 228 0 62 3 75 27 106 34 45 83 62
146 53 39 -6 55 -15 99 -60 29 -30 55 -65 59 -79 8 -32 20 -33 28 -2 11 43 93
125 139 137 117 31 206 -46 194 -171 -5 -64 -22 -101 -80 -178 l-40 -53 25
-25 25 -26 43 54 c62 78 93 150 98 231 4 58 0 75 -23 123 -32 65 -91 109 -160
120 -62 9 -146 -18 -196 -63 l-40 -36 -32 31 c-18 17 -48 38 -68 46 -45 19
-127 28 -159 17z"/>
</g>
</svg>
