<?xml version="1.0" standalone="no"?>
<!DOCTYPE svg PUBLIC "-//W3C//DTD SVG 20010904//EN"
 "http://www.w3.org/TR/2001/REC-SVG-20010904/DTD/svg10.dtd">
<svg version="1.0" xmlns="http://www.w3.org/2000/svg"
 width="157.000000pt" height="168.000000pt" viewBox="0 0 157.000000 168.000000"
 preserveAspectRatio="xMidYMid meet">
<metadata>
Created by potrace 1.10, written by Peter Selinger 2001-2011
</metadata>
<g transform="translate(0.000000,168.000000) scale(0.050000,-0.050000)"
fill="#000000" stroke="none">
<path d="M1465 3321 c-140 -34 -425 -336 -425 -449 0 -32 128 -79 137 -51 22
66 183 275 241 314 249 166 503 -112 653 -714 57 -229 61 -225 -95 -126 -1102
696 -2220 516 -1813 -292 76 -149 92 -160 158 -106 l48 38 -53 98 c-271 497
114 686 908 444 120 -36 179 -77 113 -77 -32 0 -294 -163 -477 -297 -937 -686
-1058 -1461 -230 -1471 l160 -2 0 70 0 70 -182 12 c-507 32 -511 374 -11 901
242 255 233 258 234 -98 6 -1158 559 -1900 1046 -1402 147 150 227 309 174
348 -61 46 -104 35 -132 -34 -233 -561 -666 -354 -860 413 -63 247 -58 259 72
169 826 -568 1909 -589 1909 -37 0 160 -149 520 -215 517 -49 -2 -112 -83 -88
-115 404 -554 15 -813 -842 -562 -161 47 -163 54 -40 118 1192 624 1596 1674
666 1734 l-184 12 7 -78 6 -78 160 -10 c508 -34 513 -372 14 -902 -230 -243
-224 -243 -224 3 0 1005 -380 1751 -835 1640z m221 -1043 c68 -34 197 -108
287 -164 l162 -101 8 -172 c4 -94 3 -246 -3 -338 l-10 -167 -180 -110 c-99
-61 -227 -133 -285 -160 l-104 -48 -126 60 c-69 33 -199 106 -290 162 l-165
102 0 334 0 334 75 49 c114 75 473 280 491 281 8 0 71 -28 140 -62z"/>
</g>
</svg>
