<?xml version="1.0" standalone="no"?>
<!DOCTYPE svg PUBLIC "-//W3C//DTD SVG 20010904//EN"
 "http://www.w3.org/TR/2001/REC-SVG-20010904/DTD/svg10.dtd">
<svg version="1.0" xmlns="http://www.w3.org/2000/svg"
 width="116.000000pt" height="111.000000pt" viewBox="0 0 116.000000 111.000000"
 preserveAspectRatio="xMidYMid meet">
<metadata>
Created by potrace 1.10, written by Peter Selinger 2001-2011
</metadata>
<g transform="translate(0.000000,111.000000) scale(0.050000,-0.050000)"
fill="#000000" stroke="none">
<path d="M1100 2042 c-522 -170 -428 -919 116 -922 403 -1 617 465 355 776
-103 122 -330 193 -471 146z m261 -167 c304 -154 198 -615 -141 -615 -248 0
-411 298 -275 502 50 75 195 158 275 158 28 0 92 -20 141 -45z"/>
<path d="M1042 937 c-286 -47 -600 -296 -712 -564 l-28 -67 68 -21 68 -20 51
104 c281 576 1188 575 1461 0 l49 -105 70 21 69 21 -28 67 c-166 397 -622 638
-1068 564z"/>
</g>
</svg>
