<?xml version="1.0" standalone="no"?>
<!DOCTYPE svg PUBLIC "-//W3C//DTD SVG 20010904//EN"
 "http://www.w3.org/TR/2001/REC-SVG-20010904/DTD/svg10.dtd">
<svg version="1.0" xmlns="http://www.w3.org/2000/svg"
 width="217.000000pt" height="155.000000pt" viewBox="0 0 217.000000 155.000000"
 preserveAspectRatio="xMidYMid meet">
<metadata>
Created by potrace 1.10, written by Peter Selinger 2001-2011
</metadata>
<g transform="translate(0.000000,155.000000) scale(0.050000,-0.050000)"
fill="#000000" stroke="none">
<path d="M2005 2961 c-239 -140 -838 -341 -1014 -341 l-51 0 1 -745 c0 -664 4
-756 36 -849 l36 -104 -158 -51 c-86 -28 -164 -51 -172 -51 -8 0 -11 90 -6
200 l8 200 -145 160 c-80 89 -142 164 -138 168 23 20 159 81 247 111 98 34
101 37 107 120 5 65 0 84 -20 76 -14 -6 -89 -36 -166 -66 -137 -55 -325 -165
-368 -216 -16 -20 19 -70 148 -210 l170 -183 0 -300 0 -299 105 42 c58 24 182
68 275 98 l170 56 40 -54 c220 -296 803 -650 1070 -650 267 1 835 344 1061
642 l49 64 140 -47 c77 -26 201 -71 275 -100 l135 -52 0 302 0 302 169 182
c124 134 164 189 148 207 -70 85 -527 305 -562 270 -53 -53 15 -147 139 -194
67 -25 146 -61 175 -80 l52 -35 -142 -147 -143 -147 7 -210 c4 -121 -1 -210
-12 -210 -10 0 -77 19 -150 42 -72 23 -142 45 -155 49 -18 5 -16 27 10 83 30
67 35 170 40 851 l6 775 -52 0 c-207 0 -853 227 -1114 392 -41 27 -78 47 -81
47 -3 -1 -79 -45 -170 -98z m366 -179 c227 -118 485 -214 678 -253 78 -16 159
-33 181 -38 36 -8 55 -1332 20 -1368 -4 -4 -141 19 -304 50 -273 52 -333 57
-766 57 -433 0 -493 -5 -766 -57 -163 -31 -301 -53 -305 -48 -37 36 -16 1357
21 1366 22 5 85 18 140 29 190 40 530 163 715 260 102 53 187 98 190 99 3 0
91 -43 196 -97z m59 -1702 c235 -17 744 -90 767 -111 75 -68 -364 -468 -677
-617 -352 -166 -457 -155 -865 91 -235 142 -538 466 -482 516 37 35 516 107
837 128 55 3 109 7 120 9 11 2 146 -5 300 -16z"/>
<path d="M2103 2362 c-55 -35 -4 -266 63 -284 65 -17 79 6 103 170 18 121 -65
178 -166 114z"/>
<path d="M1480 2147 l-63 -53 96 -97 c105 -107 118 -112 170 -64 34 31 33 37
-29 149 -73 133 -87 139 -174 65z"/>
<path d="M2703 2083 c-60 -113 -61 -119 -26 -150 52 -48 64 -43 170 64 l96 97
-63 53 c-89 75 -106 68 -177 -64z"/>
<path d="M1977 1833 c-192 -71 -335 -193 -417 -354 l-41 -80 52 -19 c78 -30
100 -25 124 28 176 384 794 384 970 0 23 -50 37 -55 110 -35 130 34 -65 300
-315 428 -112 57 -370 74 -483 32z"/>
</g>
</svg>
